# xmcd
#
# Track frame offsets:
#	150
#	15571
#	35001
#	47585
#	65451
#	85020
#	103506
#	124855
#	138271
#	151945
#	169016
#	184203
#	198967
#	215566
#	232325
#	244966
#
# Disc length: 3408 seconds
#
# Revision: 0
# Processed by: cddbd v1.5.2PL0 Copyright (c) Steve Scherf et al.
# Submitted via: audiograbber 1.83.01
#
DISCID=dc0d4e10
DTITLE=Various Artist - Country Gold [CD 3)
DYEAR=2009
DGENRE=Country
TTITLE0=Larry Butler - Goodbye Come Hard For Me
TTITLE1=Sam Neely - Son Of The South
TTITLE2=Pat O'Bryan - Radio Free Texas
TTITLE3=Dallas Wayne - Under The Overpass
TTITLE4=Jackson MacKay - Here We Are, Here We Go
TTITLE5=Jon Dean Foster - Second Time Around
TTITLE6=Kevin Henderson - Rebel Highway
TTITLE7=Crea - I Fall To Pieces
TTITLE8=Ricky Vallance - Time After Time
TTITLE9=Kelly Lang - Looking Down
TTITLE10=Big Bull Band - Honky Tonk Heroes
TTITLE11=John Wayne jr. - The Queen Of My Soul
TTITLE12=Paul Delicato - Is This All There Is To A Honky Tonk
TTITLE13=The Dallahachie Boys - There's Something Special
TTITLE14=Butch Martin - Goodbye To Montana
TTITLE15=Hermann Lammers Meyer - Hey Hey Trucker Lady
EXTD=
EXTT0=
EXTT1=
EXTT2=
EXTT3=
EXTT4=
EXTT5=
EXTT6=
EXTT7=
EXTT8=
EXTT9=
EXTT10=
EXTT11=
EXTT12=
EXTT13=
EXTT14=
EXTT15=
PLAYORDER=
